<svg width="16" height="16" viewBox="0 0 16 16" fill="none" xmlns="http://www.w3.org/2000/svg">
  <path d="M8.99996 5.33333H7.99996V8.66667L10.8533 10.36L11.3333 9.55333L8.99996 8.16667V5.33333ZM8.66663 2C7.07533 2 5.5492 2.63214 4.42399 3.75736C3.29877 4.88258 2.66663 6.4087 2.66663 8H0.666626L3.30663 10.6867L5.99996 8H3.99996C3.99996 6.76232 4.49162 5.57534 5.36679 4.70017C6.24196 3.825 7.42895 3.33333 8.66663 3.33333C9.9043 3.33333 11.0913 3.825 11.9665 4.70017C12.8416 5.57534 13.3333 6.76232 13.3333 8C13.3333 9.23768 12.8416 10.4247 11.9665 11.2998C11.0913 12.175 9.9043 12.6667 8.66663 12.6667C7.37996 12.6667 6.21329 12.14 5.37329 11.2933L4.42663 12.24C5.51329 13.3333 6.99996 14 8.66663 14C10.2579 14 11.784 13.3679 12.9093 12.2426C14.0345 11.1174 14.6666 9.5913 14.6666 8C14.6666 6.4087 14.0345 4.88258 12.9093 3.75736C11.784 2.63214 10.2579 2 8.66663 2" fill="#2A3A41"/>
</svg>
